<svg width="128" height="128" version="1.1" viewBox="0 -960 128 128" xmlns="http://www.w3.org/2000/svg" fill="none">
 <path id="i" d="m63.2-896h-62.8v-12.72h88.24q2.703 0 4.532-1.828t1.828-4.532-1.828-4.532-4.532-1.828q-2.226 0-3.975 1.192t-2.226 3.418l-12.24-3.339q1.749-6.201 6.837-10.1t11.61-3.896q7.95 0 13.52 5.565t5.565 13.52-5.565 13.52-13.52 5.565h-7.473q0.477 1.59 0.795 3.1t0.318 3.26q0 7.95-5.565 13.52t-13.52 5.565q-6.519 0-11.61-3.896t-6.837-10.1l12.24-3.339q0.477 2.226 2.226 3.418t3.975 1.192q2.703 0 4.532-1.828t1.828-4.532-1.828-4.532-4.532-1.828z" stroke-width=".159">
  <title>i</title>
 </path>
 <path id="o" d="m64-838.8q-2.862 0-5.486-1.034t-4.69-3.1l-40.23-40.39h17.97l31.32 31.32q0.318 0.318 0.5565 0.3975t0.5565 0.0795 0.5565-0.0795 0.5565-0.3975l42.45-42.61q3.657-3.657 5.565-8.666t1.908-10.26q-0.318-10.97-7.314-18.84t-17.49-7.87q-4.929 0-9.46 1.908t-7.87 5.565l-4.293 4.611q-0.795 0.954-2.067 1.51t-2.544 0.5565-2.544-0.5565-2.226-1.51l-4.293-4.611q-3.339-3.657-7.791-5.724t-9.54-2.067q-8.586 0-14.87 5.486t-8.506 13.59h-13.04q2.703-13.52 12.64-22.66t23.77-9.142q7.632 0 14.39 3.021t12 8.427q5.088-5.406 11.85-8.427t14.39-3.021q15.9 0 26.63 11.77t10.73 27.98q0 7.791-2.703 14.95t-8.109 12.72l-42.77 42.93q-2.067 2.067-4.611 3.1t-5.406 1.034z" stroke-width=".159">
  <title>o</title>
 </path>
  <style>
    #o {
      fill: #179299;
      @media (prefers-color-scheme: dark) {
      fill: #94e2d5;
    }
    }
    #i {
      fill: #04a5e5;
    @media (prefers-color-scheme: dark) {
    fill: #89b4fa;
    }
    }
  </style>
</svg>
